# xmcd CD database file
#
# Track frame offsets:
#	150
#	18261
#	38085
#	59952
#	80481
#	99505
#	118255
#	141465
#	155928
#	170574
#	189909
#	209633
#
# Disc length: 3061 seconds
#
# Revision: 0
# Processed by: cddbd v1.5.2PL0 Copyright (c) Steve Scherf et al.
# Submitted via: CDex 1.70beta2
#
DISCID=b50bf30c
DTITLE=Little Big Town - A Place to Land
DYEAR=2007
DGENRE=Country
TTITLE0=Fine Line
TTITLE1=I'm With the Band
TTITLE2=That's Where I'll Be
TTITLE3=Evangeline
TTITLE4=Vapor
TTITLE5=Novocaine
TTITLE6=Only What You Make of It
TTITLE7=A Place to Land
TTITLE8=Firebird Fly
TTITLE9=To Know Love
TTITLE10=Lonely Enough
TTITLE11=Fury
EXTD=YEAR: 2007
EXTT0=
EXTT1=
EXTT2=
EXTT3=
EXTT4=
EXTT5=
EXTT6=
EXTT7=
EXTT8=
EXTT9=
EXTT10=
EXTT11=
PLAYORDER=
